<?xml version="1.0" encoding="UTF-8"?>
<svg id="Layer_1" data-name="Layer 1" xmlns="http://www.w3.org/2000/svg" viewBox="0 0 331.42 331.43">
  <defs>
    <style>
      .cls-1 {
        fill: #fff;
      }
    </style>
  </defs>
  <path class="cls-1" d="M331.42,188.61v-45.79c0-5.3-3.9-9.8-9.15-10.54l-22.89-3.25c-3.92-.56-7.23-3.25-8.53-6.99-1.67-4.78-3.6-9.44-5.78-13.96-1.73-3.57-1.3-7.81,1.09-10.99l13.65-18.18c3.18-4.24,2.76-10.18-.99-13.92l-32.38-32.38c-3.75-3.75-9.68-4.17-13.92-.99l-18.18,13.65c-3.17,2.38-7.41,2.81-10.99,1.09-4.52-2.18-9.18-4.12-13.96-5.78-3.74-1.31-6.43-4.61-6.99-8.53l-3.25-22.89c-.75-5.25-5.24-9.15-10.54-9.15h-45.79c-5.3,0-9.8,3.9-10.54,9.15l-3.25,22.89c-.56,3.92-3.25,7.23-6.99,8.53-4.78,1.67-9.44,3.6-13.96,5.78-3.57,1.73-7.81,1.3-10.99-1.09l-18.18-13.65c-4.24-3.18-10.18-2.76-13.92.99l-32.38,32.38c-3.75,3.75-4.17,9.68-.99,13.92l13.65,18.18c2.38,3.17,2.81,7.41,1.09,10.99-2.18,4.52-4.12,9.18-5.78,13.96-1.31,3.74-4.61,6.43-8.53,6.99l-22.89,3.25c-5.25.75-9.15,5.24-9.15,10.54v45.79c0,5.3,3.9,9.8,9.15,10.54l22.89,3.25c3.92.56,7.23,3.25,8.53,6.99,1.67,4.78,3.6,9.44,5.78,13.96,1.73,3.57,1.3,7.81-1.09,10.99l-13.65,18.18c-3.18,4.24-2.76,10.18.99,13.92l32.38,32.38c3.75,3.75,9.68,4.17,13.92.99l18.18-13.65c3.17-2.38,7.41-2.81,10.99-1.09,4.52,2.18,9.17,4.12,13.96,5.78,3.74,1.31,6.43,4.61,6.99,8.53l3.25,22.89c.75,5.25,5.24,9.15,10.54,9.15h45.79c5.3,0,9.8-3.9,10.54-9.15l3.25-22.89c.56-3.92,3.25-7.23,6.99-8.53,4.78-1.67,9.44-3.6,13.96-5.78,3.57-1.73,7.81-1.3,10.99,1.09l18.18,13.65c4.24,3.18,10.18,2.76,13.92-.99l32.38-32.38c3.75-3.75,4.17-9.68.99-13.92l-13.65-18.18c-2.38-3.17-2.81-7.41-1.09-10.99,2.18-4.52,4.12-9.18,5.78-13.96,1.31-3.74,4.61-6.43,8.53-6.99l22.89-3.25c5.25-.75,9.15-5.24,9.15-10.54ZM165.71,240c-40.96,0-74.29-33.32-74.29-74.29s33.32-74.29,74.29-74.29,74.29,33.32,74.29,74.29-33.32,74.29-74.29,74.29Z"/>
</svg>