<?xml version="1.0" encoding="UTF-8"?>
<svg id="Layer_1" xmlns="http://www.w3.org/2000/svg" viewBox="0 0 658.54 658.54">
  <defs>
    <style>
      .cls-1 {
        fill: #fff;
      }
    </style>
  </defs>
  <path class="cls-1" d="M329.27,0C147.43,0,0,147.41,0,329.27s147.43,329.27,329.27,329.27,329.27-147.43,329.27-329.27S511.13,0,329.27,0ZM329.27,640.96c-172.14,0-311.69-139.55-311.69-311.69S157.13,17.57,329.27,17.57s311.7,139.55,311.7,311.7-139.55,311.69-311.7,311.69Z"/>
  <path class="cls-1" d="M284.68,283.69l-128.81,221.32,220.15-126.33,126.66-220.43-218,125.44ZM329.16,354.66c-13.62,0-24.66-10.76-24.66-24.02s11.03-24.02,24.66-24.02,24.67,10.76,24.67,24.02-11.05,24.02-24.67,24.02Z"/>
</svg>