<?xml version="1.0" encoding="UTF-8"?>
<svg id="Layer_1" data-name="Layer 1" xmlns="http://www.w3.org/2000/svg" xmlns:xlink="http://www.w3.org/1999/xlink" viewBox="0 0 720.09 305.23">
  <defs>
    <style>
      .cls-1 {
        fill: #401201;
      }

      .cls-2 {
        fill: none;
      }

      .cls-3 {
        fill: #38af93;
        font-family: NewZen-Regular, 'New Zen';
        font-size: 279px;
      }

      .cls-4 {
        clip-path: url(#clippath);
      }
    </style>
    <clipPath id="clippath">
      <rect class="cls-2" x="223.12" y="37.17" width="52.87" height="57.19" transform="translate(20.3 184.27) rotate(-42.1)"/>
    </clipPath>
  </defs>
  <text class="cls-3" transform="translate(0 237.43)"><tspan x="0" y="0">clique</tspan></text>
  <g>
    <path class="cls-1" d="M212.4,33.72l-.03.02c-.9.81-.96,2.21-.13,3.13l4.46,4.97c.83.92,2.23,1.01,3.13.2l.03-.02c.9-.81.96-2.21.13-3.13l-4.46-4.97c-.83-.92-2.23-1.01-3.13-.2Z"/>
    <path class="cls-1" d="M245.82,36.94l-4.86,4.37c-.9.81-.96,2.21-.13,3.13l.02.03c.83.92,2.23,1.01,3.13.2l4.86-4.37c.9-.81.96-2.21.13-3.13l-.02-.03c-.83-.92-2.23-1.01-3.13-.2Z"/>
    <path class="cls-1" d="M233.4,27.92c.02-.59-.18-1.16-.58-1.61s-.95-.71-1.54-.75h-.03c-.59-.04-1.16.15-1.59.54s-.69.93-.71,1.52l-.3,7.33c-.02.59.18,1.16.58,1.61s.95.71,1.54.75h.03c.59.04,1.16-.15,1.59-.54s.69-.93.71-1.52l.3-7.33Z"/>
    <path class="cls-1" d="M218.23,59.73l-4.93,4.43c-.9.81-.96,2.21-.13,3.13l.02.03c.83.92,2.23,1.01,3.13.2l4.93-4.43c.9-.81.96-2.21.13-3.13l-.02-.03c-.83-.92-2.23-1.01-3.13-.2Z"/>
    <path class="cls-1" d="M208.01,47.56c-.59-.04-1.16.16-1.59.55s-.69.93-.71,1.52v.03c-.03.59.18,1.16.58,1.61s.95.71,1.54.75l7.32.48c.59.04,1.16-.16,1.59-.55s.69-.93.71-1.52v-.03c.03-.59-.18-1.16-.58-1.61s-.95-.71-1.54-.75l-7.33-.48Z"/>
    <g class="cls-4">
      <path class="cls-1" d="M266.43,45.02l9.7,10.74c3.4,3.77,5.03,8.55,4.59,13.48-.44,4.85-2.82,9.46-6.7,12.97-7,6.32-13.9,8.66-23.07,7.83-.01,0-.03,0-.04,0l-14.02-.53c-1.96-.19-3.53-1.68-3.81-3.63-.32-2.21,1.14-4.3,3.32-4.77l10.77-1.6s.01,0,.02,0c.68-.12,1.22-.57,1.45-1.21.23-.64.11-1.34-.33-1.86l-20.74-24.49s-.01-.01-.02-.02c-1.32-1.46-1.2-3.72.26-5.03s3.72-1.2,5.03.25l12.57,13.92c.29.32.77.36,1.11.09.33-.27.4-.75.15-1.1l-3.15-4.33c-.91-1.37-.68-3.24.55-4.35,1.37-1.24,3.49-1.13,4.73.24l4.34,4.8c.29.32.79.36,1.12.08.33-.28.39-.77.12-1.11l-3.22-4.18c-.66-1.23-.41-2.73.63-3.67,1.51-1.37,3.85-1.25,5.22.26l4.54,5.03c.3.33.8.36,1.14.06h0c.33-.3.36-.8.07-1.14l-2.07-2.37c-.42-.7-.56-1.58-.44-2.42.12-.84.5-1.64,1.11-2.19,1.47-1.33,3.74-1.21,5.07.26"/>
    </g>
  </g>
</svg>