<?xml version="1.0" encoding="UTF-8"?>
<svg id="Layer_1" data-name="Layer 1" xmlns="http://www.w3.org/2000/svg" viewBox="0 0 327.98 337.64">
  <defs>
    <style>
      .cls-1 {
        fill: #fff;
      }
    </style>
  </defs>
  <path class="cls-1" d="M235.32,176.87c-7.07-3.33-15.32-2.83-22.06,1.13-14.45,8.5-31.29,13.37-49.27,13.37s-34.82-4.87-49.27-13.37c-6.74-3.96-14.99-4.46-22.06-1.13C46.9,198.41,12.45,240.02.68,290.35c-3.21,13.74,5.28,27.51,19.02,30.72,46.34,10.83,94.65,16.56,144.29,16.56s97.95-5.73,144.29-16.56c13.74-3.21,22.23-16.98,19.02-30.72-11.78-50.34-46.22-91.95-91.98-113.49Z"/>
  <circle class="cls-1" cx="163.99" cy="83.25" r="83.25"/>
</svg>