<?xml version="1.0" encoding="UTF-8"?>
<svg id="Layer_1" data-name="Layer 1" xmlns="http://www.w3.org/2000/svg" xmlns:xlink="http://www.w3.org/1999/xlink" viewBox="0 0 360.76 363.7">
  <defs>
    <style>
      .cls-1 {
        fill: #38af93;
      }

      .cls-2 {
        fill: #401201;
      }

      .cls-3 {
        fill: none;
      }

      .cls-4 {
        clip-path: url(#clippath);
      }
    </style>
    <clipPath id="clippath">
      <polygon class="cls-3" points="22.13 168.7 193.37 5.84 360.76 200.84 189.52 363.7 22.13 168.7"/>
    </clipPath>
  </defs>
  <ellipse class="cls-1" cx="102.41" cy="112.48" rx="54.8" ry="57.68"/>
  <g>
    <path class="cls-2" d="M29.22,37.51l-.11.11c-3.92,3.71-4.17,10.16-.57,14.39l19.49,22.82c3.61,4.23,9.73,4.65,13.65.94l.11-.11c3.92-3.71,4.17-10.16.57-14.39l-19.49-22.82c-3.61-4.23-9.73-4.65-13.65-.94Z"/>
    <path class="cls-2" d="M175.14,52.32l-21.22,20.07c-3.92,3.71-4.17,10.16-.57,14.39l.1.12c3.61,4.23,9.73,4.65,13.65.94l21.22-20.07c3.92-3.71,4.17-10.16.57-14.39l-.1-.12c-3.61-4.23-9.73-4.65-13.65-.94Z"/>
    <path class="cls-2" d="M120.93,10.87c.11-2.72-.8-5.34-2.54-7.39-1.75-2.05-4.13-3.27-6.71-3.45h-.15c-2.58-.19-5.04.7-6.94,2.5-1.9,1.8-3,4.28-3.11,7l-1.32,33.69c-.11,2.72.8,5.34,2.54,7.39,1.75,2.05,4.13,3.27,6.71,3.45h.15c2.58.19,5.04-.7,6.94-2.5,1.9-1.8,3-4.28,3.11-7l1.32-33.69Z"/>
    <path class="cls-2" d="M54.68,157.05l-21.52,20.36c-3.92,3.71-4.17,10.16-.57,14.39l.1.12c3.61,4.23,9.73,4.65,13.65.94l21.52-20.36c3.92-3.71,4.17-10.16.57-14.39l-.1-.12c-3.61-4.23-9.73-4.65-13.65-.94Z"/>
    <path class="cls-2" d="M10.07,101.12c-2.58-.18-5.04.71-6.94,2.51S.12,107.92.01,110.63v.16c-.11,2.71.79,5.34,2.54,7.39,1.75,2.05,4.13,3.27,6.71,3.45l31.98,2.2c2.58.18,5.04-.71,6.94-2.51,1.9-1.8,3-4.28,3.11-7v-.16c.11-2.71-.79-5.34-2.54-7.39s-4.13-3.27-6.71-3.45l-31.98-2.2Z"/>
    <g class="cls-4">
      <path class="cls-2" d="M265.12,89.43l42.35,49.34c14.86,17.31,21.97,39.3,20.04,61.94-1.9,22.29-12.3,43.45-29.27,59.6-30.54,29.05-60.67,39.81-100.72,35.99-.06,0-.12,0-.19,0l-61.19-2.42c-8.57-.86-15.4-7.71-16.63-16.69-1.39-10.17,4.97-19.78,14.5-21.93l47-7.34s.05,0,.08-.01c2.95-.53,5.32-2.62,6.35-5.57,1.02-2.96.48-6.16-1.45-8.56l-90.55-112.55s-.05-.06-.07-.09c-5.75-6.7-5.25-17.07,1.11-23.13,6.37-6.06,16.22-5.53,21.97,1.17l54.89,63.95c1.25,1.46,3.37,1.64,4.83.4,1.45-1.23,1.74-3.45.65-5.05l-13.74-19.89c-3.97-6.31-2.95-14.89,2.4-19.97,5.98-5.69,15.24-5.19,20.64,1.1l18.94,22.07c1.27,1.48,3.43,1.64,4.88.35,1.46-1.29,1.69-3.54.52-5.12l-14.04-19.2c-2.89-5.65-1.78-12.55,2.76-16.87,6.6-6.28,16.82-5.73,22.79,1.22l19.83,23.11c1.3,1.52,3.51,1.64,4.96.29l.02-.02c1.43-1.36,1.56-3.67.29-5.2l-9.04-10.91c-1.84-3.24-2.43-7.26-1.9-11.11.54-3.84,2.2-7.52,4.86-10.05,6.4-6.09,16.33-5.56,22.11,1.18"/>
    </g>
  </g>
</svg>