<?xml version="1.0" encoding="UTF-8"?>
<svg id="Layer_1" data-name="Layer 1" xmlns="http://www.w3.org/2000/svg" viewBox="0 0 337.03 301.8">
  <defs>
    <style>
      .cls-1 {
        fill: #38af93;
      }

      .cls-2 {
        fill: #401201;
      }

      .cls-3 {
        fill: none;
        stroke: #401201;
        stroke-width: 5px;
      }
    </style>
  </defs>
  <ellipse class="cls-1" cx="102.41" cy="112.48" rx="54.8" ry="57.68"/>
  <path class="cls-2" d="M29.22,37.51l-.11.11c-3.92,3.71-4.17,10.16-.57,14.39l19.49,22.82c3.61,4.23,9.73,4.65,13.65.94l.11-.11c3.92-3.71,4.17-10.16.57-14.39l-19.49-22.82c-3.61-4.23-9.73-4.65-13.65-.94Z"/>
  <path class="cls-2" d="M175.14,52.32l-21.22,20.07c-3.92,3.71-4.17,10.16-.57,14.39l.1.12c3.61,4.23,9.73,4.65,13.65.94l21.22-20.07c3.92-3.71,4.17-10.16.57-14.39l-.1-.12c-3.61-4.23-9.73-4.65-13.65-.94Z"/>
  <path class="cls-2" d="M120.93,10.87c.11-2.72-.8-5.34-2.54-7.39-1.75-2.05-4.13-3.27-6.71-3.45h-.15c-2.58-.19-5.04.7-6.94,2.5-1.9,1.8-3,4.28-3.11,7l-1.32,33.69c-.11,2.72.8,5.34,2.54,7.39,1.75,2.05,4.13,3.27,6.71,3.45h.15c2.58.19,5.04-.7,6.94-2.5,1.9-1.8,3-4.28,3.11-7l1.32-33.69Z"/>
  <path class="cls-2" d="M54.68,157.05l-21.52,20.36c-3.92,3.71-4.17,10.16-.57,14.39l.1.12c3.61,4.23,9.73,4.65,13.65.94l21.52-20.36c3.92-3.71,4.17-10.16.57-14.39l-.1-.12c-3.61-4.23-9.73-4.65-13.65-.94Z"/>
  <path class="cls-2" d="M10.07,101.12c-2.58-.18-5.04.71-6.94,2.51S.12,107.92.01,110.63v.16c-.11,2.71.79,5.34,2.54,7.39,1.75,2.05,4.13,3.27,6.71,3.45l31.98,2.2c2.58.18,5.04-.71,6.94-2.51,1.9-1.8,3-4.28,3.11-7v-.16c.11-2.71-.79-5.34-2.54-7.39s-4.13-3.27-6.71-3.45l-31.98-2.2Z"/>
  <path class="cls-3" d="M271.36,96.82l42.95,48.92c15.07,17.16,22.1,38.8,19.79,60.93-2.27,21.79-13.27,42.36-30.99,57.91-31.87,27.99-63.06,38.08-104.28,33.76-.06,0-.12,0-.19-.01l-63.02-3.27c-8.82-.97-15.76-7.77-16.91-16.58-1.3-9.97,5.4-19.29,15.25-21.25l48.53-6.49s.06,0,.08-.01c3.04-.48,5.52-2.48,6.62-5.36,1.1-2.88.58-6.03-1.38-8.4l-91.74-111.51s-.05-.06-.07-.09c-5.83-6.64-5.17-16.79,1.47-22.62,6.64-5.83,16.79-5.18,22.63,1.46l55.67,63.4c1.27,1.45,3.45,1.65,4.97.46,1.51-1.18,1.84-3.35.74-4.94l-13.88-19.68c-4.01-6.24-2.83-14.62,2.75-19.51,6.24-5.48,15.77-4.86,21.25,1.38l19.21,21.88c1.29,1.47,3.51,1.65,5.02.42,1.52-1.24,1.79-3.44.61-5l-14.2-19c-2.9-5.57-1.66-12.31,3.08-16.47,6.89-6.05,17.41-5.37,23.47,1.52l20.12,22.91c1.32,1.5,3.6,1.66,5.11.35l.02-.02c1.49-1.31,1.65-3.57.38-5.08l-9.16-10.81c-1.85-3.2-2.41-7.14-1.8-10.9.61-3.75,2.37-7.33,5.15-9.76,6.68-5.87,16.9-5.2,22.77,1.48h0Z"/>
</svg>