<?xml version="1.0" encoding="UTF-8"?>
<svg id="Layer_1" data-name="Layer 1" xmlns="http://www.w3.org/2000/svg" viewBox="0 0 346.74 320.77">
  <defs>
    <style>
      .cls-1 {
        fill: #38af93;
      }
    </style>
  </defs>
  <path class="cls-1" d="M47.55,320.77c-4.2,0-7.6-3.41-7.6-7.61,0-.62.08-1.24.23-1.84l15.72-62.87C21.43,224.48.63,185.38,0,143.41,0,64.33,77.77,0,173.37,0s173.37,64.33,173.37,143.41-77.77,143.42-173.37,143.42c-15.2.03-30.34-1.82-45.08-5.52l-77.34,38.66c-1.06.53-2.22.8-3.4.8ZM173.37,15.21C86.16,15.21,15.21,72.72,15.21,143.41c.79,38.82,20.9,74.68,53.62,95.59,2.62,1.8,3.85,5.03,3.08,8.12l-12.96,51.86,65.1-32.55c1.66-.83,3.56-1.02,5.36-.55,14.34,3.84,29.13,5.77,43.98,5.73,87.21,0,158.16-57.51,158.16-128.21,0-70.69-70.95-128.2-158.16-128.2Z"/>
  <circle class="cls-1" cx="99" cy="141.53" r="18.86"/>
  <circle class="cls-1" cx="171.25" cy="141.53" r="18.86"/>
  <circle class="cls-1" cx="243.49" cy="141.53" r="18.86"/>
</svg>