<?xml version="1.0" encoding="UTF-8"?>
<svg id="Layer_1" data-name="Layer 1" xmlns="http://www.w3.org/2000/svg" viewBox="0 0 1689.94 1425.91">
  <defs>
    <style>
      .cls-1 {
        fill: #fff;
      }
    </style>
  </defs>
  <path class="cls-1" d="M1659.28,610.75l-286.21-222.06V132.03c0-14.53-11.89-26.41-26.41-26.41h-158.43c-14.52,0-26.41,11.87-26.41,26.41v92.75L893.51,16.62c-28.57-22.16-68.53-22.16-97.09,0L30.66,610.75c-34.57,26.83-40.85,76.59-14.03,111.14,26.81,34.55,76.56,40.86,111.14,14.03L805.35,210.22s19.15-17.01,39.61-17.01,39.58,16.98,39.58,16.98l677.63,525.74c14.44,11.2,31.54,16.63,48.5,16.63,23.63,0,47.04-10.53,62.64-30.66,26.82-34.57,20.54-84.32-14.03-111.15Z"/>
  <path class="cls-1" d="M1457.83,752.77l-592.01-459.33c-11.47-8.9-30.25-8.9-41.72,0L232.08,752.77c-11.49,8.9-20.86,28.08-20.86,42.59v604.15c0,14.52,11.89,26.41,26.41,26.41h422.49c14.53,0,26.41-11.89,26.41-26.41v-422.49c0-14.52,11.89-26.41,26.41-26.41h264.06c14.52,0,26.41,11.89,26.41,26.41v422.49c0,14.52,11.89,26.41,26.41,26.41h422.49c14.52,0,26.41-11.89,26.41-26.41v-604.15c0-14.51-9.39-33.69-20.86-42.59Z"/>
</svg>