<?xml version="1.0" encoding="UTF-8"?>
<svg id="Layer_1" data-name="Layer 1" xmlns="http://www.w3.org/2000/svg" viewBox="0 0 353.82 353.82">
  <defs>
    <style>
      .cls-1 {
        fill: #fff;
      }

      .cls-2 {
        fill: #8c2703;
      }
    </style>
  </defs>
  <circle class="cls-2" cx="176.91" cy="176.91" r="176.91"/>
  <g>
    <path class="cls-1" d="M270.72,63.55h-62.54v-7.82c0-8.64-7-15.64-15.64-15.64h-31.27c-8.64,0-15.64,7-15.64,15.64v7.82h-62.54c-8.64,0-15.64,7-15.64,15.64s7,15.63,15.64,15.63h187.62c8.64,0,15.64-7,15.64-15.63s-7-15.64-15.64-15.64Z"/>
    <path class="cls-1" d="M99.15,290.7c1.16,13.03,12.08,23.02,25.16,23.02h105.19c13.08,0,24-9.99,25.16-23.02l16.05-180.24H83.1l16.05,180.24ZM208.18,157.37c0-4.32,3.5-7.82,7.82-7.82s7.82,3.5,7.82,7.82v109.45c0,4.32-3.5,7.82-7.82,7.82s-7.82-3.5-7.82-7.82v-109.45ZM169.09,157.37c0-4.32,3.5-7.82,7.82-7.82s7.82,3.5,7.82,7.82v109.45c0,4.32-3.5,7.82-7.82,7.82s-7.82-3.5-7.82-7.82v-109.45ZM130.01,157.37c0-4.32,3.5-7.82,7.82-7.82s7.82,3.5,7.82,7.82v109.45c0,4.32-3.5,7.82-7.82,7.82s-7.82-3.5-7.82-7.82v-109.45Z"/>
  </g>
</svg>