<?xml version="1.0" encoding="UTF-8"?>
<svg id="Layer_1" data-name="Layer 1" xmlns="http://www.w3.org/2000/svg" viewBox="0 0 333.9 333.9">
  <defs>
    <style>
      .cls-1 {
        fill: #fff;
      }

      .cls-2 {
        fill: #8c2703;
      }
    </style>
  </defs>
  <circle class="cls-2" cx="166.95" cy="166.95" r="166.95"/>
  <path class="cls-1" d="M190.41,167.05l79.86-79.86c6.44-6.44,6.44-16.96,0-23.46h0c-6.44-6.44-16.96-6.44-23.46,0l-79.86,79.86L87.09,63.73c-6.44-6.44-16.96-6.44-23.46,0h0c-6.44,6.44-6.44,16.96,0,23.46l79.86,79.86-79.86,79.86c-6.44,6.44-6.44,16.96,0,23.46h0c6.44,6.44,16.96,6.44,23.46,0l79.86-79.86,79.86,79.86c6.44,6.44,16.96,6.44,23.46,0h0c6.44-6.44,6.44-16.96,0-23.46l-79.86-79.86Z"/>
</svg>